<svg width="75" height="75" viewBox="0 0 75 75" fill="none" xmlns="http://www.w3.org/2000/svg">
<path d="M0 37.5C0 58.2107 16.7893 75 37.5 75C58.2107 75 75 58.2107 75 37.5C75 16.7893 58.2107 0 37.5 0C16.7893 0 0 16.7893 0 37.5Z" fill="#1877F2"/>
<path d="M56.25 37.5C56.25 27.1875 47.8125 18.75 37.5 18.75C27.1875 18.75 18.75 27.1875 18.75 37.5C18.75 46.875 25.5469 54.6094 34.4531 56.0156V42.8906H29.7656V37.5H34.4531V33.2812C34.4531 28.5937 37.2656 26.0156 41.4844 26.0156C43.5938 26.0156 45.7031 26.4844 45.7031 26.4844V31.1719H43.3594C41.0156 31.1719 40.3125 32.5781 40.3125 33.9844V37.5H45.4687L44.5312 42.8906H40.0781V56.25C49.4531 54.8437 56.25 46.875 56.25 37.5Z" fill="white"/>
</svg>
