<svg width="42" height="42" viewBox="0 0 42 42" fill="none" xmlns="http://www.w3.org/2000/svg">
<g clip-path="url(#clip0_1_302)">
<path d="M33.1224 12.1339C33.1224 5.44322 27.6788 0 20.9885 0C14.2978 0 8.85457 5.44322 8.85457 12.1339C8.85457 16.2781 10.9435 19.9432 14.1228 22.1331C11.1543 23.1575 8.4332 24.8497 6.14722 27.1357C2.18312 31.0998 0 36.3706 0 41.9766H3.27933C3.27933 32.212 11.2235 24.2678 20.9885 24.2678C27.6788 24.2678 33.1224 18.8246 33.1224 12.1339V12.1339ZM20.9885 20.9885C16.106 20.9885 12.1339 17.0164 12.1339 12.1339C12.1339 7.25143 16.106 3.27933 20.9885 3.27933C25.8706 3.27933 29.8427 7.25143 29.8427 12.1339C29.8427 17.0164 25.8706 20.9885 20.9885 20.9885V20.9885ZM42 30.1708L34.2817 37.8891L31.9627 35.5702L35.8044 31.7285H32.9602C29.0311 31.7285 25.8315 34.9254 25.8283 38.8546L25.8254 41.9779L22.5461 41.9753L22.5487 38.8517C22.5535 33.1156 27.2241 28.4488 32.9602 28.4488H35.6403L31.9627 24.7712L34.2817 22.4525L42 30.1708Z" fill="#157698"/>
</g>
<defs>
<clipPath id="clip0_1_302">
<rect width="42" height="42" fill="white"/>
</clipPath>
</defs>
</svg>
