<svg width="75" height="75" viewBox="0 0 75 75" fill="none" xmlns="http://www.w3.org/2000/svg">
<path d="M63.2812 0H11.7188C5.24666 0 0 5.24666 0 11.7188V63.2812C0 69.7533 5.24666 75 11.7188 75H63.2812C69.7533 75 75 69.7533 75 63.2812V11.7188C75 5.24666 69.7533 0 63.2812 0Z" fill="#231E1B"/>
<path fill-rule="evenodd" clip-rule="evenodd" d="M37.4427 19.2C27.1216 19.2 18.75 27.5716 18.75 37.8927C18.75 46.1496 24.1399 53.145 31.4794 55.6679C32.3968 55.7826 32.7408 55.2092 32.7408 54.7505C32.7408 54.2918 32.7408 53.145 32.7408 51.5395C27.5803 52.6863 26.4335 49.0165 26.4335 49.0165C25.6307 46.8376 24.3693 46.2642 24.3693 46.2642C22.6491 45.1174 24.4839 45.1174 24.4839 45.1174C26.3188 45.2321 27.3509 47.067 27.3509 47.067C29.0711 49.934 31.7087 49.1312 32.7408 48.6725C32.8555 47.411 33.4289 46.6083 33.8876 46.1496C29.7592 45.6908 25.4014 44.0853 25.4014 36.8606C25.4014 34.7963 26.0894 33.1908 27.3509 31.8147C27.2362 31.4707 26.5482 29.5211 27.5803 26.9982C27.5803 26.9982 29.1858 26.5395 32.7408 28.9477C34.2317 28.489 35.8372 28.3743 37.4427 28.3743C39.0482 28.3743 40.6537 28.6037 42.1445 28.9477C45.6995 26.5395 47.305 26.9982 47.305 26.9982C48.3372 29.5211 47.6491 31.4707 47.5344 31.9294C48.6812 33.1908 49.4839 34.911 49.4839 36.9752C49.4839 44.2 45.1261 45.6908 40.9977 46.1496C41.6858 46.7229 42.2592 47.8697 42.2592 49.5899C42.2592 52.1129 42.2592 54.0624 42.2592 54.7505C42.2592 55.2092 42.6032 55.7826 43.5206 55.6679C50.9748 53.145 56.25 46.1496 56.25 37.8927C56.1353 27.5716 47.7638 19.2 37.4427 19.2Z" fill="white"/>
</svg>
