<svg width="21" height="29" viewBox="0 0 21 29" fill="none" xmlns="http://www.w3.org/2000/svg">
<path d="M20.625 3.15625C20.6241 2.336 20.2979 1.54959 19.7179 0.969581C19.1379 0.389575 18.3515 0.0633531 17.5312 0.0625H3.09375C2.2735 0.0633531 1.48709 0.389575 0.907081 0.969581C0.327075 1.54959 0.000853097 2.336 0 3.15625V25.8438C0.000853097 26.664 0.327075 27.4504 0.907081 28.0304C1.48709 28.6104 2.2735 28.9366 3.09375 28.9375H17.5312C18.3515 28.9366 19.1379 28.6104 19.7179 28.0304C20.2979 27.4504 20.6241 26.664 20.625 25.8438V3.15625ZM4.64062 25.8438C4.33468 25.8438 4.03561 25.753 3.78123 25.5831C3.52685 25.4131 3.32858 25.1715 3.2115 24.8888C3.09442 24.6062 3.06379 24.2952 3.12347 23.9951C3.18316 23.695 3.33048 23.4194 3.54682 23.2031C3.76315 22.9867 4.03878 22.8394 4.33884 22.7797C4.63891 22.72 4.94993 22.7507 5.23259 22.8677C5.51524 22.9848 5.75683 23.1831 5.9268 23.4375C6.09678 23.6919 6.1875 23.9909 6.1875 24.2969C6.1875 24.7071 6.02453 25.1006 5.73443 25.3907C5.44434 25.6808 5.05088 25.8438 4.64062 25.8438ZM4.64062 20.6875C4.33468 20.6875 4.03561 20.5968 3.78123 20.4268C3.52685 20.2568 3.32858 20.0152 3.2115 19.7326C3.09442 19.4499 3.06379 19.1389 3.12347 18.8388C3.18316 18.5388 3.33048 18.2632 3.54682 18.0468C3.76315 17.8305 4.03878 17.6832 4.33884 17.6235C4.63891 17.5638 4.94993 17.5944 5.23259 17.7115C5.51524 17.8286 5.75683 18.0268 5.9268 18.2812C6.09678 18.5356 6.1875 18.8347 6.1875 19.1406C6.1875 19.5509 6.02453 19.9443 5.73443 20.2344C5.44434 20.5245 5.05088 20.6875 4.64062 20.6875ZM4.64062 15.5312C4.33468 15.5312 4.03561 15.4405 3.78123 15.2706C3.52685 15.1006 3.32858 14.859 3.2115 14.5763C3.09442 14.2937 3.06379 13.9827 3.12347 13.6826C3.18316 13.3825 3.33048 13.1069 3.54682 12.8906C3.76315 12.6742 4.03878 12.5269 4.33884 12.4672C4.63891 12.4075 4.94993 12.4382 5.23259 12.5552C5.51524 12.6723 5.75683 12.8706 5.9268 13.125C6.09678 13.3794 6.1875 13.6784 6.1875 13.9844C6.1875 14.3946 6.02453 14.7881 5.73443 15.0782C5.44434 15.3683 5.05088 15.5312 4.64062 15.5312V15.5312ZM10.3125 25.8438C10.0066 25.8438 9.70748 25.753 9.4531 25.5831C9.19872 25.4131 9.00045 25.1715 8.88337 24.8888C8.76629 24.6062 8.73566 24.2952 8.79535 23.9951C8.85503 23.695 9.00236 23.4194 9.21869 23.2031C9.43503 22.9867 9.71065 22.8394 10.0107 22.7797C10.3108 22.72 10.6218 22.7507 10.9045 22.8677C11.1871 22.9848 11.4287 23.1831 11.5987 23.4375C11.7687 23.6919 11.8594 23.9909 11.8594 24.2969C11.8594 24.7071 11.6964 25.1006 11.4063 25.3907C11.1162 25.6808 10.7228 25.8438 10.3125 25.8438ZM10.3125 20.6875C10.0066 20.6875 9.70748 20.5968 9.4531 20.4268C9.19872 20.2568 9.00045 20.0152 8.88337 19.7326C8.76629 19.4499 8.73566 19.1389 8.79535 18.8388C8.85503 18.5388 9.00236 18.2632 9.21869 18.0468C9.43503 17.8305 9.71065 17.6832 10.0107 17.6235C10.3108 17.5638 10.6218 17.5944 10.9045 17.7115C11.1871 17.8286 11.4287 18.0268 11.5987 18.2812C11.7687 18.5356 11.8594 18.8347 11.8594 19.1406C11.8594 19.5509 11.6964 19.9443 11.4063 20.2344C11.1162 20.5245 10.7228 20.6875 10.3125 20.6875ZM10.3125 15.5312C10.0066 15.5312 9.70748 15.4405 9.4531 15.2706C9.19872 15.1006 9.00045 14.859 8.88337 14.5763C8.76629 14.2937 8.73566 13.9827 8.79535 13.6826C8.85503 13.3825 9.00236 13.1069 9.21869 12.8906C9.43503 12.6742 9.71065 12.5269 10.0107 12.4672C10.3108 12.4075 10.6218 12.4382 10.9045 12.5552C11.1871 12.6723 11.4287 12.8706 11.5987 13.125C11.7687 13.3794 11.8594 13.6784 11.8594 13.9844C11.8594 14.3946 11.6964 14.7881 11.4063 15.0782C11.1162 15.3683 10.7228 15.5312 10.3125 15.5312V15.5312ZM17.5312 24.2969C17.5312 24.7071 17.3683 25.1006 17.0782 25.3907C16.7881 25.6808 16.3946 25.8438 15.9844 25.8438C15.5741 25.8438 15.1807 25.6808 14.8906 25.3907C14.6005 25.1006 14.4375 24.7071 14.4375 24.2969V19.1406C14.4375 18.7304 14.6005 18.3369 14.8906 18.0468C15.1807 17.7567 15.5741 17.5938 15.9844 17.5938C16.3946 17.5938 16.7881 17.7567 17.0782 18.0468C17.3683 18.3369 17.5312 18.7304 17.5312 19.1406V24.2969ZM15.9844 15.5312C15.6784 15.5312 15.3794 15.4405 15.125 15.2706C14.8706 15.1006 14.6723 14.859 14.5552 14.5763C14.4382 14.2937 14.4075 13.9827 14.4672 13.6826C14.5269 13.3825 14.6742 13.1069 14.8906 12.8906C15.1069 12.6742 15.3825 12.5269 15.6826 12.4672C15.9827 12.4075 16.2937 12.4382 16.5763 12.5552C16.859 12.6723 17.1006 12.8706 17.2706 13.125C17.4405 13.3794 17.5312 13.6784 17.5312 13.9844C17.5312 14.3946 17.3683 14.7881 17.0782 15.0782C16.7881 15.3683 16.3946 15.5312 15.9844 15.5312V15.5312ZM17.229 9.04146C17.0357 9.23489 16.7735 9.34362 16.5 9.34375H4.125C3.8515 9.34375 3.58919 9.2351 3.3958 9.0417C3.2024 8.84831 3.09375 8.586 3.09375 8.3125V4.1875C3.09375 3.914 3.2024 3.65169 3.3958 3.4583C3.58919 3.2649 3.8515 3.15625 4.125 3.15625H16.5C16.7735 3.15625 17.0358 3.2649 17.2292 3.4583C17.4226 3.65169 17.5312 3.914 17.5312 4.1875V8.3125C17.5311 8.58596 17.4224 8.84817 17.229 9.04146Z" fill="#4F4F4F"/>
</svg>
