<svg width="110" height="110" viewBox="0 0 110 110" fill="none" xmlns="http://www.w3.org/2000/svg">
<circle cx="55" cy="55" r="54" stroke="#157698" stroke-width="2" stroke-linecap="round" stroke-dasharray="0.1 4"/>
<path d="M59.8636 32.0004C56.2378 31.9466 56.2378 37.4284 59.8636 37.3747H62.5455V41.1958L47.8062 49.6334L45.0493 42.7489H48.8843C52.5101 42.8027 52.5101 37.3209 48.8843 37.3747H38.0122C34.3864 37.3209 34.3864 42.8027 38.0122 42.7489H39.2673L41.5844 48.5424C40.5468 48.2741 39.4806 48.1333 38.4091 48.1232C31.0341 48.1232 25 54.1693 25 61.5589C25 68.9486 31.0341 74.9946 38.4091 74.9946C45.7841 74.9946 51.8182 68.9486 51.8182 61.5589C51.8182 59.0276 51.0673 56.6791 49.8336 54.653L63.0925 47.0645L65.2487 49.2572C62.8574 50.3032 60.8214 52.0237 59.389 54.209C57.9567 56.3942 57.1898 58.9499 57.1818 61.5643C57.1818 68.9486 63.2159 75 70.5909 75C77.9659 75 84 68.9432 84 61.5589C84 54.5885 78.6203 48.8864 71.8245 48.2415L67.9091 44.329V34.6875C67.9091 33.9749 67.6265 33.2914 67.1236 32.7874C66.6207 32.2835 65.9385 32.0004 65.2273 32.0004H59.8636ZM38.4091 53.4975C42.8824 53.4975 46.4545 57.0768 46.4545 61.5589C46.4545 66.0411 42.8824 69.6203 38.4091 69.6203C33.9358 69.6203 30.3636 66.0411 30.3636 61.5589C30.3636 57.0768 33.9358 53.4975 38.4091 53.4975ZM70.3495 53.519H70.3603C70.5208 53.5352 70.6825 53.5352 70.843 53.519C72.9336 53.571 74.9205 54.442 76.3775 55.9451C77.8345 57.4482 78.6454 59.4636 78.6364 61.5589C78.6364 66.0411 75.0642 69.6203 70.5909 69.6203C66.1176 69.6203 62.5455 66.0464 62.5455 61.5589C62.5365 59.4618 63.3489 57.4448 64.8082 55.9414C66.2675 54.438 68.2571 53.5682 70.3495 53.519V53.519Z" fill="#157698"/>
</svg>
