<svg width="110" height="110" viewBox="0 0 110 110" fill="none" xmlns="http://www.w3.org/2000/svg">
<circle cx="55" cy="55" r="54" stroke="#157698" stroke-width="2" stroke-linecap="round" stroke-dasharray="0.1 4"/>
<path d="M54.5 24C38.2339 24 25 37.2339 25 53.5C25 69.7661 38.2339 83 54.5 83C70.7661 83 84 69.7661 84 53.5C84 37.2339 70.7661 24 54.5 24ZM74.7813 67.1154H68.3678C68.1691 67.1149 67.974 67.0623 67.802 66.9627C67.63 66.8632 67.4872 66.7202 67.3878 66.5481L65.0987 62.6223C64.948 62.3656 64.9042 62.06 64.9768 61.7713L67.0843 53.2731C67.1266 53.1018 67.2082 52.9428 67.3227 52.8087C67.4372 52.6745 67.5814 52.5688 67.7438 52.5001L71.7291 50.8124C71.9239 50.7298 72.1378 50.7033 72.3468 50.7359C72.5559 50.7685 72.7516 50.8588 72.912 50.9968L78.8162 56.077C78.9618 56.2023 79.0731 56.3625 79.1398 56.5426C79.2066 56.7227 79.2265 56.9168 79.1977 57.1067C78.7088 60.4613 77.5367 63.68 75.7542 66.5637C75.6535 66.7318 75.5109 66.8711 75.3404 66.9677C75.1699 67.0644 74.9773 67.1153 74.7813 67.1154ZM37.2709 50.8237L41.2562 52.5115C41.4186 52.5802 41.5628 52.6858 41.6773 52.82C41.7918 52.9542 41.8734 53.1132 41.9157 53.2844L44.0232 61.7827C44.0958 62.0714 44.052 62.377 43.9013 62.6337L41.6122 66.5481C41.5128 66.7202 41.37 66.8632 41.198 66.9627C41.026 67.0623 40.8309 67.1149 40.6322 67.1154H34.2188C34.0248 67.1155 33.834 67.0659 33.6647 66.9713C33.4953 66.8767 33.3531 66.7403 33.2515 66.575C31.4689 63.6914 30.2969 60.4727 29.8079 57.118C29.7792 56.9281 29.7991 56.734 29.8658 56.5539C29.9326 56.3739 30.0439 56.2137 30.1894 56.0883L36.0937 51.0081C36.2535 50.8712 36.4483 50.7815 36.6561 50.749C36.864 50.7164 37.0769 50.7423 37.2709 50.8237V50.8237ZM73.7119 38.4507L71.1491 45.7378C71.0976 45.8867 71.0156 46.0233 70.9084 46.1388C70.8012 46.2543 70.6711 46.3462 70.5264 46.4087L66.3312 48.1857C66.1387 48.2672 65.9274 48.2939 65.7207 48.2628C65.514 48.2318 65.3198 48.1443 65.1597 48.0099L57.1805 41.3171C57.053 41.2116 56.9501 41.0795 56.8791 40.93C56.808 40.7806 56.7706 40.6174 56.7692 40.4519V35.6894C56.7693 35.5028 56.8155 35.3191 56.9035 35.1546C56.9916 34.99 57.1189 34.8498 57.2741 34.7462L63.3486 30.6985C63.5071 30.5927 63.6897 30.5285 63.8796 30.5119C64.0695 30.4953 64.2605 30.5268 64.435 30.6035C67.9302 32.1279 71.0321 34.4289 73.5048 37.3317C73.6348 37.4835 73.7224 37.6669 73.7588 37.8634C73.7951 38.0599 73.779 38.2625 73.7119 38.4507V38.4507ZM45.65 30.6985L51.7259 34.7462C51.8811 34.8498 52.0084 34.99 52.0965 35.1546C52.1845 35.3191 52.2307 35.5028 52.2308 35.6894V40.4519C52.2308 40.6177 52.1944 40.7814 52.1244 40.9316C52.0543 41.0818 51.9522 41.2148 51.8251 41.3213L43.846 48.0141C43.6858 48.1485 43.4917 48.2361 43.285 48.2671C43.0783 48.2981 42.867 48.2714 42.6745 48.19L38.4736 46.4087C38.328 46.347 38.1969 46.2556 38.0887 46.1403C37.9805 46.025 37.8976 45.8884 37.8453 45.7392L35.2825 38.4522C35.2159 38.2632 35.2005 38.0601 35.2378 37.8633C35.2752 37.6665 35.364 37.4831 35.4952 37.3317C37.9694 34.426 41.0737 32.1229 44.5721 30.5978C44.7459 30.5234 44.9356 30.4937 45.1238 30.5113C45.3121 30.5289 45.493 30.5932 45.65 30.6985V30.6985ZM48.105 77.1411L45.3068 70.0938C45.2428 69.9336 45.2162 69.7609 45.229 69.5888C45.2417 69.4168 45.2936 69.25 45.3805 69.101L47.532 65.4135C47.6314 65.2414 47.7742 65.0984 47.9462 64.9988C48.1182 64.8993 48.3133 64.8466 48.5121 64.8462H60.4879C60.6867 64.8466 60.8818 64.8993 61.0538 64.9988C61.2258 65.0984 61.3686 65.2414 61.468 65.4135L63.6209 69.101C63.7081 69.2498 63.7602 69.4166 63.7732 69.5887C63.7862 69.7607 63.7598 69.9334 63.6961 70.0938L60.9177 77.1383C60.8497 77.3105 60.7407 77.4635 60.6 77.5839C60.4593 77.7043 60.2913 77.7884 60.1107 77.829C56.4238 78.6752 52.5932 78.6752 48.9063 77.829C48.727 77.7879 48.5604 77.7038 48.4208 77.584C48.2812 77.4641 48.1728 77.3122 48.105 77.1411V77.1411Z" fill="#157698"/>
</svg>
