<svg width="110" height="110" viewBox="0 0 110 110" fill="none" xmlns="http://www.w3.org/2000/svg">
<circle cx="55" cy="55" r="54" stroke="#157698" stroke-width="2" stroke-linecap="round" stroke-dasharray="0.1 4"/>
<path d="M54.5 64.6667C58.8907 64.6667 62.45 61.0849 62.45 56.6667C62.45 52.2484 58.8907 48.6667 54.5 48.6667C50.1093 48.6667 46.55 52.2484 46.55 56.6667C46.55 61.0849 50.1093 64.6667 54.5 64.6667Z" fill="#157698"/>
<path d="M75.7 35.3333H67.2995L64.0135 31.7333C63.5197 31.1877 62.9181 30.7518 62.2474 30.4533C61.5766 30.1548 60.8514 30.0005 60.118 30H48.882C47.398 30 45.967 30.64 44.96 31.7333L41.7005 35.3333H33.3C30.385 35.3333 28 37.7333 28 40.6667V72.6667C28 75.6 30.385 78 33.3 78H75.7C78.615 78 81 75.6 81 72.6667V40.6667C81 37.7333 78.615 35.3333 75.7 35.3333ZM54.5 70C47.186 70 41.25 64.0267 41.25 56.6667C41.25 49.3067 47.186 43.3333 54.5 43.3333C61.814 43.3333 67.75 49.3067 67.75 56.6667C67.75 64.0267 61.814 70 54.5 70Z" fill="#157698"/>
</svg>
