<svg width="110" height="110" viewBox="0 0 110 110" fill="none" xmlns="http://www.w3.org/2000/svg">
<circle cx="55" cy="55" r="54" stroke="#157698" stroke-width="2" stroke-linecap="round" stroke-dasharray="0.1 4"/>
<path d="M71.2561 37H37.7512C34.9897 36.9996 32.2709 37.6923 29.8369 39.0164C27.4029 40.3405 25.3292 42.2549 23.8005 44.5892C22.2717 46.9235 21.3354 49.6052 21.0748 52.3957C20.8141 55.1861 21.2374 57.9987 22.3067 60.583C23.3761 63.1672 25.0584 65.443 27.2039 67.2078C29.3494 68.9725 31.8916 70.1713 34.604 70.6976C37.3164 71.2239 40.115 71.0613 42.7505 70.2243C45.386 69.3872 47.7768 67.9017 49.7098 65.9H59.2902C61.223 67.9015 63.6134 69.3869 66.2486 70.224C68.8838 71.0611 71.682 71.2239 74.3942 70.698C77.1064 70.1721 79.6484 68.9737 81.794 67.2095C83.9395 65.4453 85.6221 63.1701 86.6919 60.5864C87.7617 58.0026 88.1855 55.1905 87.9257 52.4003C87.6658 49.6101 86.7304 46.9283 85.2026 44.5938C83.6748 42.2593 81.602 40.3443 79.1688 39.0194C76.7356 37.6946 74.0174 37.0008 71.2561 37V37ZM46.963 55.275C46.963 55.6132 46.8307 55.9375 46.5951 56.1766C46.3595 56.4157 46.04 56.55 45.7069 56.55H40.2635V62.075C40.2635 62.4132 40.1312 62.7375 39.8956 62.9766C39.66 63.2157 39.3405 63.35 39.0074 63.35H36.495C36.1619 63.35 35.8424 63.2157 35.6068 62.9766C35.3712 62.7375 35.2389 62.4132 35.2389 62.075V56.55H29.7955C29.4624 56.55 29.1429 56.4157 28.9073 56.1766C28.6717 55.9375 28.5394 55.6132 28.5394 55.275V52.725C28.5394 52.3868 28.6717 52.0625 28.9073 51.8234C29.1429 51.5843 29.4624 51.45 29.7955 51.45H35.2389V45.925C35.2389 45.5868 35.3712 45.2625 35.6068 45.0234C35.8424 44.7843 36.1619 44.65 36.495 44.65H39.0074C39.3405 44.65 39.66 44.7843 39.8956 45.0234C40.1312 45.2625 40.2635 45.5868 40.2635 45.925V51.45H45.7069C46.04 51.45 46.3595 51.5843 46.5951 51.8234C46.8307 52.0625 46.963 52.3868 46.963 52.725V55.275ZM69.5739 63.35C68.7458 63.35 67.9362 63.1007 67.2476 62.6337C66.5591 62.1668 66.0224 61.503 65.7055 60.7264C65.3885 59.9498 65.3056 59.0953 65.4672 58.2709C65.6287 57.4464 66.0275 56.6892 66.6131 56.0948C67.1987 55.5004 67.9448 55.0956 68.757 54.9317C69.5693 54.7677 70.4112 54.8518 71.1763 55.1735C71.9414 55.4952 72.5954 56.0399 73.0555 56.7388C73.5155 57.4377 73.7611 58.2594 73.7611 59.1C73.7611 60.2272 73.32 61.3082 72.5347 62.1052C71.7495 62.9022 70.6844 63.35 69.5739 63.35V63.35ZM76.2734 53.15C75.4453 53.15 74.6357 52.9007 73.9472 52.4337C73.2586 51.9668 72.7219 51.303 72.405 50.5264C72.0881 49.7498 72.0051 48.8953 72.1667 48.0709C72.3283 47.2464 72.7271 46.4892 73.3126 45.8948C73.8982 45.3004 74.6443 44.8956 75.4566 44.7317C76.2688 44.5677 77.1107 44.6518 77.8758 44.9735C78.6409 45.2952 79.2949 45.8399 79.755 46.5388C80.2151 47.2377 80.4606 48.0594 80.4606 48.9C80.4606 50.0272 80.0195 51.1082 79.2342 51.9052C78.449 52.7022 77.384 53.15 76.2734 53.15Z" fill="#157698"/>
</svg>
