<svg width="75" height="75" viewBox="0 0 75 75" fill="none" xmlns="http://www.w3.org/2000/svg">
<path d="M0 37.5C0 58.2107 16.7893 75 37.5 75C58.2107 75 75 58.2107 75 37.5C75 16.7893 58.2107 0 37.5 0C16.7893 0 0 16.7893 0 37.5Z" fill="#F00073"/>
<path d="M37.5 21.5625C42.6562 21.5625 43.3594 21.5625 45.4687 21.5625C47.3438 21.5625 48.2812 22.0313 48.9844 22.2656C49.9219 22.7344 50.625 22.9688 51.3281 23.6719C52.0312 24.375 52.5 25.0781 52.7344 26.0156C52.9688 26.7188 53.2031 27.6563 53.4375 29.5313C53.4375 31.6406 53.4375 32.1094 53.4375 37.5C53.4375 42.8906 53.4375 43.3594 53.4375 45.4687C53.4375 47.3438 52.9688 48.2812 52.7344 48.9844C52.2656 49.9219 52.0312 50.625 51.3281 51.3281C50.625 52.0312 49.9219 52.5 48.9844 52.7344C48.2812 52.9688 47.3438 53.2031 45.4687 53.4375C43.3594 53.4375 42.8906 53.4375 37.5 53.4375C32.1094 53.4375 31.6406 53.4375 29.5313 53.4375C27.6563 53.4375 26.7188 52.9688 26.0156 52.7344C25.0781 52.2656 24.375 52.0312 23.6719 51.3281C22.9688 50.625 22.5 49.9219 22.2656 48.9844C22.0313 48.2812 21.7969 47.3438 21.5625 45.4687C21.5625 43.3594 21.5625 42.8906 21.5625 37.5C21.5625 32.1094 21.5625 31.6406 21.5625 29.5313C21.5625 27.6563 22.0313 26.7188 22.2656 26.0156C22.7344 25.0781 22.9688 24.375 23.6719 23.6719C24.375 22.9688 25.0781 22.5 26.0156 22.2656C26.7188 22.0313 27.6563 21.7969 29.5313 21.5625C31.6406 21.5625 32.3438 21.5625 37.5 21.5625ZM37.5 18.0469C32.1094 18.0469 31.6406 18.0469 29.5313 18.0469C27.4219 18.0469 26.0156 18.5156 24.8438 18.9844C23.6719 19.4531 22.5 20.1563 21.3281 21.3281C20.1563 22.5 19.6875 23.4375 18.9844 24.8438C18.5156 26.0156 18.2813 27.4219 18.0469 29.5313C18.0469 31.6406 18.0469 32.3438 18.0469 37.5C18.0469 42.8906 18.0469 43.3594 18.0469 45.4687C18.0469 47.5781 18.5156 48.9844 18.9844 50.1562C19.4531 51.3281 20.1563 52.5 21.3281 53.6719C22.5 54.8437 23.4375 55.3125 24.8438 56.0156C26.0156 56.4844 27.4219 56.7187 29.5313 56.9531C31.6406 56.9531 32.3438 56.9531 37.5 56.9531C42.6562 56.9531 43.3594 56.9531 45.4687 56.9531C47.5781 56.9531 48.9844 56.4844 50.1562 56.0156C51.3281 55.5469 52.5 54.8437 53.6719 53.6719C54.8437 52.5 55.3125 51.5625 56.0156 50.1562C56.4844 48.9844 56.7187 47.5781 56.9531 45.4687C56.9531 43.3594 56.9531 42.6562 56.9531 37.5C56.9531 32.3438 56.9531 31.6406 56.9531 29.5313C56.9531 27.4219 56.4844 26.0156 56.0156 24.8438C55.5469 23.6719 54.8437 22.5 53.6719 21.3281C52.5 20.1563 51.5625 19.6875 50.1562 18.9844C48.9844 18.5156 47.5781 18.2813 45.4687 18.0469C43.3594 18.0469 42.8906 18.0469 37.5 18.0469Z" fill="white"/>
<path d="M37.5 27.4219C31.875 27.4219 27.4219 31.875 27.4219 37.5C27.4219 43.125 31.875 47.5781 37.5 47.5781C43.125 47.5781 47.5781 43.125 47.5781 37.5C47.5781 31.875 43.125 27.4219 37.5 27.4219ZM37.5 44.0625C33.9844 44.0625 30.9375 41.25 30.9375 37.5C30.9375 33.9844 33.75 30.9375 37.5 30.9375C41.0156 30.9375 44.0625 33.75 44.0625 37.5C44.0625 41.0156 41.0156 44.0625 37.5 44.0625Z" fill="white"/>
<path d="M47.8125 29.5313C49.1069 29.5313 50.1562 28.4819 50.1562 27.1875C50.1562 25.8931 49.1069 24.8438 47.8125 24.8438C46.5181 24.8438 45.4687 25.8931 45.4687 27.1875C45.4687 28.4819 46.5181 29.5313 47.8125 29.5313Z" fill="white"/>
</svg>
