<svg width="75" height="75" viewBox="0 0 75 75" fill="none" xmlns="http://www.w3.org/2000/svg">
<path d="M0 37.5C0 58.2107 16.7893 75 37.5 75C58.2107 75 75 58.2107 75 37.5C75 16.7893 58.2107 0 37.5 0C16.7893 0 0 16.7893 0 37.5Z" fill="#1DA1F2"/>
<path d="M56.25 25.7812C54.8437 26.4844 53.4375 26.7187 51.7969 26.9531C53.4375 26.0156 54.6094 24.6094 55.0781 22.7344C53.6719 23.6719 52.0312 24.1406 50.1562 24.6094C48.75 23.2031 46.6406 22.2656 44.5312 22.2656C39.6094 22.2656 35.8594 26.9531 37.0313 31.6406C30.7031 31.4062 25.0781 28.3594 21.0938 23.6719C18.9844 27.1875 20.1563 31.6406 23.4375 33.9844C22.2656 33.9844 21.0938 33.5156 19.9219 33.0469C19.9219 36.5625 22.5 39.8437 26.0156 40.7812C24.8438 41.0156 23.6719 41.25 22.5 41.0156C23.4375 44.0625 26.25 46.4062 29.7656 46.4062C26.9531 48.5156 22.7344 49.6875 18.75 49.2188C22.2656 51.3281 26.25 52.7344 30.4688 52.7344C44.7656 52.7344 52.7344 40.7812 52.2656 29.7656C53.9062 28.8281 55.3125 27.4219 56.25 25.7812Z" fill="white"/>
</svg>
